<?xml version="1.0" encoding="iso-8859-1"?>
<!-- Uploaded to: SVG Repo, www.svgrepo.com, Generator: SVG Repo Mixer Tools -->
<!DOCTYPE svg PUBLIC "-//W3C//DTD SVG 1.1//EN" "http://www.w3.org/Graphics/SVG/1.1/DTD/svg11.dtd">
<svg fill="#00ff00" height="800px" width="800px" version="1.1" id="Capa_1" xmlns="http://www.w3.org/2000/svg" xmlns:xlink="http://www.w3.org/1999/xlink" 
	 viewBox="0 0 380 380" xml:space="preserve">
<path d="M370.122,161.643v-16.763h-13.715v16.763h-15.775v-16.763h-13.715v16.763h-17.695v-16.763h-13.721v16.763h-15.772v-16.763
	h-13.721v16.763h-3.189v13.27h11.416v35.778h-44.197v-57.294h-3.805v-43.984l-34.027-56.706V25.673
	c8.383-8.101,15.451-7.988,26.635-4.894c11.684,3.229,18.859,3.238,27.764-6.019c-20.898,12.691-33.791-23.61-54.398-12.666V0
	h-5.188v54.106l-33.189,55.306v43.984h-3.807v57.294h-44.258v-35.778h11.416v-13.27h-3.189v-16.763H100.28v16.763H84.499v-16.763
	H70.784v16.763H53.091v-16.763H39.37v16.763H23.599v-16.763H9.878v16.763h-3.19v13.27h11.416V380h73.656h14.004h168.471h14.006
	h73.654V174.913h11.416v-13.27H370.122z M72.497,356.509H51.372v-33.138c0-5.831,4.73-10.561,10.563-10.561
	s10.563,4.73,10.563,10.561V356.509z M91.991,184.121H31.872v-9.208h60.119V184.121z M189.999,104.579
	c13.131,5.377,12.541,14.064,12.541,14.064v28.813h-12.541h-12.537v-28.813C177.462,118.643,176.87,109.956,189.999,104.579z
	 M226.251,274.219v83.299h-36.252h-36.25v-83.299c0,0-1.701-25.113,36.25-40.659C227.956,249.105,226.251,274.219,226.251,274.219z
	 M328.628,356.509h-21.125v-33.138c0-5.831,4.73-10.561,10.561-10.561c5.834,0,10.564,4.73,10.564,10.561V356.509z M348.128,184.121
	h-60.119v-9.208h60.119V184.121z"/>
</svg>