<?xml version="1.0" standalone="no"?>
<!DOCTYPE svg PUBLIC "-//W3C//DTD SVG 20010904//EN"
 "http://www.w3.org/TR/2001/REC-SVG-20010904/DTD/svg10.dtd">
<svg version="1.0" xmlns="http://www.w3.org/2000/svg"
 width="1259.000000pt" height="1280.000000pt" viewBox="0 0 1259.000000 1280.000000"
 preserveAspectRatio="xMidYMid meet">
<metadata>
Created by potrace 1.15, written by Peter Selinger 2001-2017
</metadata>
<g transform="translate(0.000000,1280.000000) scale(0.100000,-0.100000)"
fill="#000000" stroke="none">
<path d="M4692 12785 c-117 -33 -219 -119 -274 -233 -31 -63 -33 -73 -33 -177
0 -102 2 -114 31 -175 17 -36 52 -88 77 -116 l47 -52 0 -4428 0 -4429 -2205
-3 -2206 -2 118 -138 c294 -344 529 -598 868 -938 610 -612 1134 -1054 1670
-1409 652 -432 1178 -641 1697 -676 274 -19 728 -4 1093 37 1577 173 3471 893
5410 2057 509 305 1181 752 1544 1026 l55 41 -3755 2 -3754 3 -3 4430 -2 4429
29 31 c119 126 160 289 111 436 -41 120 -113 201 -227 256 -61 29 -87 36 -155
39 -54 3 -101 -1 -136 -11z"/>
<path d="M5452 11888 c452 -2355 623 -3791 605 -5068 -8 -507 -26 -771 -83
-1160 -90 -620 -263 -1182 -498 -1622 l-72 -135 3126 -6 c1718 -3 3127 -4
3129 -1 12 12 -301 700 -520 1139 -654 1315 -1394 2476 -2338 3665 -804 1013
-1851 2099 -2956 3066 -201 176 -433 374 -438 374 -2 0 18 -114 45 -252z"/>
<path d="M4220 9345 c0 -29 -82 -368 -126 -524 -277 -971 -745 -1794 -1468
-2580 -353 -384 -693 -695 -1496 -1366 -567 -474 -836 -707 -1030 -893 l-95
-91 2113 -1 2112 0 0 2735 c0 1504 -2 2735 -5 2735 -3 0 -5 -7 -5 -15z"/>
</g>
</svg>
